<svg xmlns="http://www.w3.org/2000/svg" viewBox="0 0 512 512">
  <defs>
    <linearGradient id="bg" x1="96" x2="416" y1="64" y2="448" gradientUnits="userSpaceOnUse">
      <stop offset="0" stop-color="#C4A676" />
      <stop offset="1" stop-color="#7B6544" />
    </linearGradient>
    <linearGradient id="sand" x1="220" x2="292" y1="160" y2="352" gradientUnits="userSpaceOnUse">
      <stop offset="0" stop-color="#F7E7C7" />
      <stop offset="1" stop-color="#F0D8A0" />
    </linearGradient>
  </defs>
  <rect width="512" height="512" rx="120" fill="url(#bg)" />
  <rect x="132" y="122" width="248" height="32" rx="16" fill="#F8F5F0" />
  <rect x="132" y="358" width="248" height="32" rx="16" fill="#F8F5F0" />
  <path
    d="M176 154h160c0 60-41 92-80 118-39-26-80-58-80-118Z"
    fill="url(#sand)"
    opacity=".92"
  />
  <path
    d="M176 358h160c0-60-41-92-80-118-39 26-80 58-80 118Z"
    fill="url(#sand)"
    opacity=".92"
  />
  <path
    d="M188 154c0 51 34 77 68 100-34 23-68 49-68 104M324 154c0 51-34 77-68 100 34 23 68 49 68 104"
    fill="none"
    stroke="#F8F5F0"
    stroke-linecap="round"
    stroke-linejoin="round"
    stroke-width="24"
  />
  <circle cx="256" cy="256" r="12" fill="#F8F5F0" />
</svg>
